<?xml version="1.0" encoding="UTF-8" standalone="no"?>
<!DOCTYPE svg PUBLIC "-//W3C//DTD SVG 1.1//EN"
 "http://www.w3.org/Graphics/SVG/1.1/DTD/svg11.dtd">
<!-- Generated by graphviz version 2.40.1 (20161225.0304)
 -->
<!-- Title: targets_pipeline Pages: 1 -->
<svg width="1479pt" height="476pt"
 viewBox="0.00 0.00 1478.67 476.00" xmlns="http://www.w3.org/2000/svg" xmlns:xlink="http://www.w3.org/1999/xlink">
<g id="graph0" class="graph" transform="scale(1 1) rotate(0) translate(4 472)">
<title>targets_pipeline</title>
<polygon fill="#ffffff" stroke="transparent" points="-4,4 -4,-472 1474.6657,-472 1474.6657,4 -4,4"/>
<!-- cohort_2018 -->
<g id="node1" class="node">
<title>cohort_2018</title>
<ellipse fill="none" stroke="#000000" cx="681.1279" cy="-18" rx="59.6993" ry="18"/>
<text text-anchor="middle" x="681.1279" y="-13.8" font-family="Times,serif" font-size="14.00" fill="#000000">cohort_2018</text>
</g>
<!-- cohort_2018_households -->
<g id="node2" class="node">
<title>cohort_2018_households</title>
<ellipse fill="none" stroke="#000000" cx="485.1279" cy="-18" rx="108.2608" ry="18"/>
<text text-anchor="middle" x="485.1279" y="-13.8" font-family="Times,serif" font-size="14.00" fill="#000000">cohort_2018_households</text>
</g>
<!-- data_directory_ready -->
<g id="node3" class="node">
<title>data_directory_ready</title>
<ellipse fill="none" stroke="#000000" cx="697.1279" cy="-306" rx="93.16" ry="18"/>
<text text-anchor="middle" x="697.1279" y="-301.8" font-family="Times,serif" font-size="14.00" fill="#000000">data_directory_ready</text>
</g>
<!-- data_files -->
<g id="node4" class="node">
<title>data_files</title>
<ellipse fill="none" stroke="#000000" cx="169.1279" cy="-378" rx="48.6501" ry="18"/>
<text text-anchor="middle" x="169.1279" y="-373.8" font-family="Times,serif" font-size="14.00" fill="#000000">data_files</text>
</g>
<!-- gdrive_files_have_NOT_changed -->
<g id="node8" class="node">
<title>gdrive_files_have_NOT_changed</title>
<ellipse fill="none" stroke="#000000" cx="339.1279" cy="-306" rx="141.784" ry="18"/>
<text text-anchor="middle" x="339.1279" y="-301.8" font-family="Times,serif" font-size="14.00" fill="#000000">gdrive_files_have_NOT_changed</text>
</g>
<!-- data_files&#45;&gt;gdrive_files_have_NOT_changed -->
<g id="edge7" class="edge">
<title>data_files&#45;&gt;gdrive_files_have_NOT_changed</title>
<path fill="none" stroke="#000000" d="M201.5038,-364.2879C226.171,-353.8406 260.5865,-339.2646 288.8304,-327.3025"/>
<polygon fill="#000000" stroke="#000000" points="290.306,-330.4785 298.1492,-323.3557 287.5761,-324.0328 290.306,-330.4785"/>
</g>
<!-- raw_files -->
<g id="node12" class="node">
<title>raw_files</title>
<ellipse fill="none" stroke="#000000" cx="762.1279" cy="-162" rx="46.9246" ry="18"/>
<text text-anchor="middle" x="762.1279" y="-157.8" font-family="Times,serif" font-size="14.00" fill="#000000">raw_files</text>
</g>
<!-- data_files&#45;&gt;raw_files -->
<g id="edge11" class="edge">
<title>data_files&#45;&gt;raw_files</title>
<path fill="none" stroke="#000000" d="M168.1538,-359.938C168.0635,-340.0412 170.9539,-308.1938 188.1279,-288 245.5561,-220.4738 288.3238,-238.258 374.1279,-216 489.6593,-186.0306 629.1313,-171.7737 705.4258,-165.7706"/>
<polygon fill="#000000" stroke="#000000" points="706.06,-169.2324 715.7629,-164.9776 705.5245,-162.2529 706.06,-169.2324"/>
</g>
<!-- dharma2019 -->
<g id="node5" class="node">
<title>dharma2019</title>
<ellipse fill="none" stroke="#000000" cx="842.1279" cy="-90" rx="59.116" ry="18"/>
<text text-anchor="middle" x="842.1279" y="-85.8" font-family="Times,serif" font-size="14.00" fill="#000000">dharma2019</text>
</g>
<!-- dharma2020 -->
<g id="node6" class="node">
<title>dharma2020</title>
<ellipse fill="none" stroke="#000000" cx="979.1279" cy="-90" rx="59.116" ry="18"/>
<text text-anchor="middle" x="979.1279" y="-85.8" font-family="Times,serif" font-size="14.00" fill="#000000">dharma2020</text>
</g>
<!-- freeze_date -->
<g id="node7" class="node">
<title>freeze_date</title>
<ellipse fill="none" stroke="#000000" cx="246.1279" cy="-450" rx="55.554" ry="18"/>
<text text-anchor="middle" x="246.1279" y="-445.8" font-family="Times,serif" font-size="14.00" fill="#000000">freeze_date</text>
</g>
<!-- freeze_date&#45;&gt;data_files -->
<g id="edge23" class="edge">
<title>freeze_date&#45;&gt;data_files</title>
<path fill="none" stroke="#000000" d="M227.88,-432.937C218.0029,-423.7013 205.6398,-412.141 194.8059,-402.0106"/>
<polygon fill="#000000" stroke="#000000" points="196.9396,-399.214 187.2449,-394.9405 192.1587,-404.327 196.9396,-399.214"/>
</g>
<!-- freeze_date&#45;&gt;gdrive_files_have_NOT_changed -->
<g id="edge8" class="edge">
<title>freeze_date&#45;&gt;gdrive_files_have_NOT_changed</title>
<path fill="none" stroke="#000000" d="M247.5775,-431.7052C249.8439,-412.4676 255.6018,-381.9949 270.1279,-360 277.8102,-348.3679 288.8343,-338.144 299.8232,-329.8106"/>
<polygon fill="#000000" stroke="#000000" points="302.0872,-332.4937 308.1637,-323.8146 298.0011,-326.81 302.0872,-332.4937"/>
</g>
<!-- guard_pipeline_freeze -->
<g id="node9" class="node">
<title>guard_pipeline_freeze</title>
<ellipse fill="none" stroke="#000000" cx="480.1279" cy="-234" rx="97.2336" ry="18"/>
<text text-anchor="middle" x="480.1279" y="-229.8" font-family="Times,serif" font-size="14.00" fill="#000000">guard_pipeline_freeze</text>
</g>
<!-- gdrive_files_have_NOT_changed&#45;&gt;guard_pipeline_freeze -->
<g id="edge16" class="edge">
<title>gdrive_files_have_NOT_changed&#45;&gt;guard_pipeline_freeze</title>
<path fill="none" stroke="#000000" d="M373.6204,-288.3868C392.9925,-278.4947 417.3228,-266.0707 437.8371,-255.5953"/>
<polygon fill="#000000" stroke="#000000" points="439.6482,-258.6005 446.9625,-250.9355 436.4647,-252.3662 439.6482,-258.6005"/>
</g>
<!-- guard_pipeline_freeze&#45;&gt;raw_files -->
<g id="edge13" class="edge">
<title>guard_pipeline_freeze&#45;&gt;raw_files</title>
<path fill="none" stroke="#000000" d="M537.5348,-219.3429C589.2114,-206.1489 664.3339,-186.9687 713.2142,-174.4886"/>
<polygon fill="#000000" stroke="#000000" points="714.1036,-177.8739 722.9269,-172.0088 712.3718,-171.0915 714.1036,-177.8739"/>
</g>
<!-- opensrp -->
<g id="node10" class="node">
<title>opensrp</title>
<ellipse fill="none" stroke="#000000" cx="583.1279" cy="-90" rx="41.7153" ry="18"/>
<text text-anchor="middle" x="583.1279" y="-85.8" font-family="Times,serif" font-size="14.00" fill="#000000">opensrp</text>
</g>
<!-- opensrp&#45;&gt;cohort_2018 -->
<g id="edge14" class="edge">
<title>opensrp&#45;&gt;cohort_2018</title>
<path fill="none" stroke="#000000" d="M604.3925,-74.3771C617.6629,-64.6273 634.9803,-51.9044 649.8048,-41.0129"/>
<polygon fill="#000000" stroke="#000000" points="652.2092,-43.5895 658.1958,-34.8481 648.0647,-37.9483 652.2092,-43.5895"/>
</g>
<!-- opensrp&#45;&gt;cohort_2018_households -->
<g id="edge21" class="edge">
<title>opensrp&#45;&gt;cohort_2018_households</title>
<path fill="none" stroke="#000000" d="M561.8634,-74.3771C548.8753,-64.8348 532.0107,-52.4445 517.4007,-41.7106"/>
<polygon fill="#000000" stroke="#000000" points="519.2365,-38.7163 509.1054,-35.6161 515.0919,-44.3575 519.2365,-38.7163"/>
</g>
<!-- opensrp_dict -->
<g id="node11" class="node">
<title>opensrp_dict</title>
<ellipse fill="none" stroke="#000000" cx="704.1279" cy="-90" rx="60.8371" ry="18"/>
<text text-anchor="middle" x="704.1279" y="-85.8" font-family="Times,serif" font-size="14.00" fill="#000000">opensrp_dict</text>
</g>
<!-- raw_files&#45;&gt;dharma2019 -->
<g id="edge25" class="edge">
<title>raw_files&#45;&gt;dharma2019</title>
<path fill="none" stroke="#000000" d="M780.6826,-145.3008C791.0335,-135.985 804.1046,-124.221 815.5273,-113.9406"/>
<polygon fill="#000000" stroke="#000000" points="818.0268,-116.3999 823.1183,-107.1086 813.344,-111.1968 818.0268,-116.3999"/>
</g>
<!-- raw_files&#45;&gt;dharma2020 -->
<g id="edge27" class="edge">
<title>raw_files&#45;&gt;dharma2020</title>
<path fill="none" stroke="#000000" d="M797.9611,-150.1107C833.7706,-138.2292 889.1245,-119.8629 929.2242,-106.5579"/>
<polygon fill="#000000" stroke="#000000" points="930.4236,-109.8477 938.8125,-103.3765 928.2191,-103.2038 930.4236,-109.8477"/>
</g>
<!-- raw_files&#45;&gt;opensrp -->
<g id="edge20" class="edge">
<title>raw_files&#45;&gt;opensrp</title>
<path fill="none" stroke="#000000" d="M729.7124,-148.9613C699.8564,-136.9522 655.4549,-119.0924 623.3476,-106.1778"/>
<polygon fill="#000000" stroke="#000000" points="624.3915,-102.8251 613.8077,-102.3405 621.7792,-109.3195 624.3915,-102.8251"/>
</g>
<!-- raw_files&#45;&gt;opensrp_dict -->
<g id="edge17" class="edge">
<title>raw_files&#45;&gt;opensrp_dict</title>
<path fill="none" stroke="#000000" d="M748.0878,-144.5708C741.0159,-135.7919 732.3096,-124.9841 724.516,-115.3093"/>
<polygon fill="#000000" stroke="#000000" points="727.2388,-113.1101 718.2399,-107.5182 721.7875,-117.5015 727.2388,-113.1101"/>
</g>
<!-- secure_access_true -->
<g id="node13" class="node">
<title>secure_access_true</title>
<ellipse fill="none" stroke="#000000" cx="790.1279" cy="-378" rx="85.0483" ry="18"/>
<text text-anchor="middle" x="790.1279" y="-373.8" font-family="Times,serif" font-size="14.00" fill="#000000">secure_access_true</text>
</g>
<!-- secure_access_true&#45;&gt;data_directory_ready -->
<g id="edge19" class="edge">
<title>secure_access_true&#45;&gt;data_directory_ready</title>
<path fill="none" stroke="#000000" d="M767.6152,-360.5708C755.7089,-351.353 740.9132,-339.8983 727.956,-329.8669"/>
<polygon fill="#000000" stroke="#000000" points="729.8055,-326.8725 719.7557,-323.5182 725.5203,-332.4075 729.8055,-326.8725"/>
</g>
<!-- recode_opensrp_education -->
<g id="node14" class="node">
<title>recode_opensrp_education</title>
<ellipse fill="none" stroke="#000000" cx="1356.1279" cy="-162" rx="114.5754" ry="18"/>
<text text-anchor="middle" x="1356.1279" y="-157.8" font-family="Times,serif" font-size="14.00" fill="#000000">recode_opensrp_education</text>
</g>
<!-- preprocess_opensrp2018 -->
<g id="node25" class="node">
<title>preprocess_opensrp2018</title>
<ellipse fill="none" stroke="#000000" cx="1163.1279" cy="-90" rx="107.0724" ry="18"/>
<text text-anchor="middle" x="1163.1279" y="-85.8" font-family="Times,serif" font-size="14.00" fill="#000000">preprocess_opensrp2018</text>
</g>
<!-- recode_opensrp_education&#45;&gt;preprocess_opensrp2018 -->
<g id="edge1" class="edge">
<title>recode_opensrp_education&#45;&gt;preprocess_opensrp2018</title>
<path fill="none" stroke="#000000" d="M1311.3648,-145.3008C1283.1295,-134.7674 1246.5045,-121.1042 1216.7243,-109.9945"/>
<polygon fill="#000000" stroke="#000000" points="1217.9079,-106.7005 1207.3153,-106.4844 1215.4612,-113.259 1217.9079,-106.7005"/>
</g>
<!-- clean_opencensus_dob -->
<g id="node15" class="node">
<title>clean_opencensus_dob</title>
<ellipse fill="none" stroke="#000000" cx="984.1279" cy="-162" rx="100.1297" ry="18"/>
<text text-anchor="middle" x="984.1279" y="-157.8" font-family="Times,serif" font-size="14.00" fill="#000000">clean_opencensus_dob</text>
</g>
<!-- clean_opencensus_dob&#45;&gt;preprocess_opensrp2018 -->
<g id="edge2" class="edge">
<title>clean_opencensus_dob&#45;&gt;preprocess_opensrp2018</title>
<path fill="none" stroke="#000000" d="M1025.1942,-145.4817C1051.0467,-135.083 1084.6147,-121.5807 1112.1625,-110.5001"/>
<polygon fill="#000000" stroke="#000000" points="1113.6615,-113.6697 1121.633,-106.6907 1111.0492,-107.1754 1113.6615,-113.6697"/>
</g>
<!-- generate_uid -->
<g id="node16" class="node">
<title>generate_uid</title>
<ellipse fill="none" stroke="#000000" cx="1163.1279" cy="-162" rx="60.8159" ry="18"/>
<text text-anchor="middle" x="1163.1279" y="-157.8" font-family="Times,serif" font-size="14.00" fill="#000000">generate_uid</text>
</g>
<!-- generate_uid&#45;&gt;preprocess_opensrp2018 -->
<g id="edge3" class="edge">
<title>generate_uid&#45;&gt;preprocess_opensrp2018</title>
<path fill="none" stroke="#000000" d="M1163.1279,-143.8314C1163.1279,-136.131 1163.1279,-126.9743 1163.1279,-118.4166"/>
<polygon fill="#000000" stroke="#000000" points="1166.628,-118.4132 1163.1279,-108.4133 1159.628,-118.4133 1166.628,-118.4132"/>
</g>
<!-- audit_categorical_cleaning -->
<g id="node17" class="node">
<title>audit_categorical_cleaning</title>
<ellipse fill="none" stroke="#000000" cx="864.1279" cy="-450" rx="115.1474" ry="18"/>
<text text-anchor="middle" x="864.1279" y="-445.8" font-family="Times,serif" font-size="14.00" fill="#000000">audit_categorical_cleaning</text>
</g>
<!-- authenticate_google_drive -->
<g id="node18" class="node">
<title>authenticate_google_drive</title>
<ellipse fill="none" stroke="#000000" cx="612.1279" cy="-450" rx="113.447" ry="18"/>
<text text-anchor="middle" x="612.1279" y="-445.8" font-family="Times,serif" font-size="14.00" fill="#000000">authenticate_google_drive</text>
</g>
<!-- authenticate_google_drive&#45;&gt;gdrive_files_have_NOT_changed -->
<g id="edge6" class="edge">
<title>authenticate_google_drive&#45;&gt;gdrive_files_have_NOT_changed</title>
<path fill="none" stroke="#000000" d="M502.1483,-445.3648C423.9584,-439.4899 328.4861,-426.174 303.1279,-396 287.4964,-377.3998 300.9462,-351.1543 315.6473,-331.8027"/>
<polygon fill="#000000" stroke="#000000" points="318.4039,-333.9598 321.9432,-323.9736 312.9489,-329.573 318.4039,-333.9598"/>
</g>
<!-- authenticate_google_drive&#45;&gt;raw_files -->
<g id="edge10" class="edge">
<title>authenticate_google_drive&#45;&gt;raw_files</title>
<path fill="none" stroke="#000000" d="M690.5551,-436.923C768.6668,-423.5224 877.8845,-403.6048 884.1279,-396 940.2836,-327.5998 842.2332,-229.1944 790.7181,-185.0088"/>
<polygon fill="#000000" stroke="#000000" points="792.7805,-182.1696 782.8806,-178.3957 788.2664,-187.5196 792.7805,-182.1696"/>
</g>
<!-- authenticate_google_drive&#45;&gt;secure_access_true -->
<g id="edge26" class="edge">
<title>authenticate_google_drive&#45;&gt;secure_access_true</title>
<path fill="none" stroke="#000000" d="M653.861,-433.1192C679.9661,-422.5599 713.7141,-408.909 741.0934,-397.8342"/>
<polygon fill="#000000" stroke="#000000" points="742.5314,-401.0281 750.4893,-394.0336 739.9065,-394.5389 742.5314,-401.0281"/>
</g>
<!-- has_drive_file_changed -->
<g id="node26" class="node">
<title>has_drive_file_changed</title>
<ellipse fill="none" stroke="#000000" cx="415.1279" cy="-378" rx="103.0559" ry="18"/>
<text text-anchor="middle" x="415.1279" y="-373.8" font-family="Times,serif" font-size="14.00" fill="#000000">has_drive_file_changed</text>
</g>
<!-- authenticate_google_drive&#45;&gt;has_drive_file_changed -->
<g id="edge4" class="edge">
<title>authenticate_google_drive&#45;&gt;has_drive_file_changed</title>
<path fill="none" stroke="#000000" d="M566.9322,-433.4817C537.9239,-422.8797 500.0893,-409.0519 469.4487,-397.8533"/>
<polygon fill="#000000" stroke="#000000" points="470.3674,-394.4626 459.7735,-394.3172 467.9644,-401.0373 470.3674,-394.4626"/>
</g>
<!-- my_median -->
<g id="node19" class="node">
<title>my_median</title>
<ellipse fill="none" stroke="#000000" cx="1056.1279" cy="-450" rx="56.7639" ry="18"/>
<text text-anchor="middle" x="1056.1279" y="-445.8" font-family="Times,serif" font-size="14.00" fill="#000000">my_median</text>
</g>
<!-- mahery_input_files -->
<g id="node20" class="node">
<title>mahery_input_files</title>
<ellipse fill="none" stroke="#000000" cx="86.1279" cy="-450" rx="86.2561" ry="18"/>
<text text-anchor="middle" x="86.1279" y="-445.8" font-family="Times,serif" font-size="14.00" fill="#000000">mahery_input_files</text>
</g>
<!-- mahery_input_files&#45;&gt;data_files -->
<g id="edge24" class="edge">
<title>mahery_input_files&#45;&gt;data_files</title>
<path fill="none" stroke="#000000" d="M106.6448,-432.2022C117.41,-422.8638 130.7315,-411.3078 142.3049,-401.2682"/>
<polygon fill="#000000" stroke="#000000" points="144.7247,-403.8025 149.9851,-394.6058 140.1377,-398.5148 144.7247,-403.8025"/>
</g>
<!-- sub_median -->
<g id="node21" class="node">
<title>sub_median</title>
<ellipse fill="none" stroke="#000000" cx="1189.1279" cy="-450" rx="57.9081" ry="18"/>
<text text-anchor="middle" x="1189.1279" y="-445.8" font-family="Times,serif" font-size="14.00" fill="#000000">sub_median</text>
</g>
<!-- my_other_median -->
<g id="node27" class="node">
<title>my_other_median</title>
<ellipse fill="none" stroke="#000000" cx="1189.1279" cy="-378" rx="81.1052" ry="18"/>
<text text-anchor="middle" x="1189.1279" y="-373.8" font-family="Times,serif" font-size="14.00" fill="#000000">my_other_median</text>
</g>
<!-- sub_median&#45;&gt;my_other_median -->
<g id="edge5" class="edge">
<title>sub_median&#45;&gt;my_other_median</title>
<path fill="none" stroke="#000000" d="M1189.1279,-431.8314C1189.1279,-424.131 1189.1279,-414.9743 1189.1279,-406.4166"/>
<polygon fill="#000000" stroke="#000000" points="1192.628,-406.4132 1189.1279,-396.4133 1185.628,-406.4133 1192.628,-406.4132"/>
</g>
<!-- download_to_local -->
<g id="node22" class="node">
<title>download_to_local</title>
<ellipse fill="none" stroke="#000000" cx="1016.1279" cy="-234" rx="85.1179" ry="18"/>
<text text-anchor="middle" x="1016.1279" y="-229.8" font-family="Times,serif" font-size="14.00" fill="#000000">download_to_local</text>
</g>
<!-- download_to_local&#45;&gt;raw_files -->
<g id="edge12" class="edge">
<title>download_to_local&#45;&gt;raw_files</title>
<path fill="none" stroke="#000000" d="M965.0328,-219.5163C919.6451,-206.6505 853.8273,-187.9935 809.578,-175.4504"/>
<polygon fill="#000000" stroke="#000000" points="810.5021,-172.0745 799.9266,-172.7146 808.593,-178.8092 810.5021,-172.0745"/>
</g>
<!-- create_datapaths -->
<g id="node23" class="node">
<title>create_datapaths</title>
<ellipse fill="none" stroke="#000000" cx="612.1279" cy="-378" rx="75.2578" ry="18"/>
<text text-anchor="middle" x="612.1279" y="-373.8" font-family="Times,serif" font-size="14.00" fill="#000000">create_datapaths</text>
</g>
<!-- create_datapaths&#45;&gt;data_directory_ready -->
<g id="edge18" class="edge">
<title>create_datapaths&#45;&gt;data_directory_ready</title>
<path fill="none" stroke="#000000" d="M632.7041,-360.5708C643.4027,-351.5084 656.6539,-340.2839 668.3513,-330.3755"/>
<polygon fill="#000000" stroke="#000000" points="670.7825,-332.903 676.1508,-323.7689 666.2581,-327.5617 670.7825,-332.903"/>
</g>
<!-- preprocess_2018_household_heads -->
<g id="node24" class="node">
<title>preprocess_2018_household_heads</title>
<ellipse fill="none" stroke="#000000" cx="376.1279" cy="-90" rx="147.6101" ry="18"/>
<text text-anchor="middle" x="376.1279" y="-85.8" font-family="Times,serif" font-size="14.00" fill="#000000">preprocess_2018_household_heads</text>
</g>
<!-- preprocess_2018_household_heads&#45;&gt;cohort_2018_households -->
<g id="edge22" class="edge">
<title>preprocess_2018_household_heads&#45;&gt;cohort_2018_households</title>
<path fill="none" stroke="#000000" d="M403.0718,-72.2022C417.1954,-62.8729 434.6695,-51.3303 449.858,-41.2976"/>
<polygon fill="#000000" stroke="#000000" points="452.0791,-44.0251 458.4941,-35.593 448.221,-38.1843 452.0791,-44.0251"/>
</g>
<!-- preprocess_opensrp2018&#45;&gt;cohort_2018 -->
<g id="edge15" class="edge">
<title>preprocess_opensrp2018&#45;&gt;cohort_2018</title>
<path fill="none" stroke="#000000" d="M1084.5185,-77.7208C1072.0132,-75.7908 1059.2182,-73.8299 1047.1279,-72 941.2877,-55.9806 818.135,-37.9324 745.0693,-27.2865"/>
<polygon fill="#000000" stroke="#000000" points="745.4989,-23.8122 735.0988,-25.8344 744.49,-30.7391 745.4989,-23.8122"/>
</g>
<!-- has_drive_file_changed&#45;&gt;gdrive_files_have_NOT_changed -->
<g id="edge9" class="edge">
<title>has_drive_file_changed&#45;&gt;gdrive_files_have_NOT_changed</title>
<path fill="none" stroke="#000000" d="M396.3414,-360.2022C387.024,-351.3752 375.6152,-340.5669 365.4437,-330.9307"/>
<polygon fill="#000000" stroke="#000000" points="367.6284,-328.1792 357.9617,-323.8425 362.8142,-333.2609 367.6284,-328.1792"/>
</g>
</g>
</svg>

