<?xml version="1.0" encoding="UTF-8" standalone="no"?>
<!DOCTYPE svg PUBLIC "-//W3C//DTD SVG 1.1//EN"
 "http://www.w3.org/Graphics/SVG/1.1/DTD/svg11.dtd">
<!-- Generated by graphviz version 2.40.1 (20161225.0304)
 -->
<!-- Title: targets_pipeline Pages: 1 -->
<svg width="1186pt" height="404pt"
 viewBox="0.00 0.00 1185.90 404.00" xmlns="http://www.w3.org/2000/svg" xmlns:xlink="http://www.w3.org/1999/xlink">
<g id="graph0" class="graph" transform="scale(1 1) rotate(0) translate(4 400)">
<title>targets_pipeline</title>
<polygon fill="#ffffff" stroke="transparent" points="-4,4 -4,-400 1181.9001,-400 1181.9001,4 -4,4"/>
<!-- data_directory_ready -->
<g id="node1" class="node">
<title>data_directory_ready</title>
<ellipse fill="none" stroke="#000000" cx="188.5977" cy="-234" rx="93.16" ry="18"/>
<text text-anchor="middle" x="188.5977" y="-229.8" font-family="Times,serif" font-size="14.00" fill="#000000">data_directory_ready</text>
</g>
<!-- data_files -->
<g id="node2" class="node">
<title>data_files</title>
<ellipse fill="none" stroke="#000000" cx="734.5977" cy="-306" rx="48.6501" ry="18"/>
<text text-anchor="middle" x="734.5977" y="-301.8" font-family="Times,serif" font-size="14.00" fill="#000000">data_files</text>
</g>
<!-- gdrive_files_have_NOT_changed -->
<g id="node6" class="node">
<title>gdrive_files_have_NOT_changed</title>
<ellipse fill="none" stroke="#000000" cx="578.5977" cy="-234" rx="141.784" ry="18"/>
<text text-anchor="middle" x="578.5977" y="-229.8" font-family="Times,serif" font-size="14.00" fill="#000000">gdrive_files_have_NOT_changed</text>
</g>
<!-- data_files&#45;&gt;gdrive_files_have_NOT_changed -->
<g id="edge4" class="edge">
<title>data_files&#45;&gt;gdrive_files_have_NOT_changed</title>
<path fill="none" stroke="#000000" d="M704.149,-291.9468C681.8001,-281.6319 651.0291,-267.4299 625.544,-255.6675"/>
<polygon fill="#000000" stroke="#000000" points="626.9656,-252.4689 616.4193,-251.4561 624.0322,-258.8246 626.9656,-252.4689"/>
</g>
<!-- raw_files -->
<g id="node10" class="node">
<title>raw_files</title>
<ellipse fill="none" stroke="#000000" cx="685.5977" cy="-90" rx="46.9246" ry="18"/>
<text text-anchor="middle" x="685.5977" y="-85.8" font-family="Times,serif" font-size="14.00" fill="#000000">raw_files</text>
</g>
<!-- data_files&#45;&gt;raw_files -->
<g id="edge8" class="edge">
<title>data_files&#45;&gt;raw_files</title>
<path fill="none" stroke="#000000" d="M734.9312,-287.9114C734.9562,-269.6238 734.1382,-240.6234 729.5977,-216 723.506,-182.9639 717.802,-175.6695 706.5977,-144 703.5112,-135.2757 699.9309,-125.8478 696.6104,-117.3489"/>
<polygon fill="#000000" stroke="#000000" points="699.8058,-115.9114 692.877,-107.8963 693.2953,-118.4829 699.8058,-115.9114"/>
</g>
<!-- dharma2019 -->
<g id="node3" class="node">
<title>dharma2019</title>
<ellipse fill="none" stroke="#000000" cx="489.5977" cy="-18" rx="59.116" ry="18"/>
<text text-anchor="middle" x="489.5977" y="-13.8" font-family="Times,serif" font-size="14.00" fill="#000000">dharma2019</text>
</g>
<!-- dharma2020 -->
<g id="node4" class="node">
<title>dharma2020</title>
<ellipse fill="none" stroke="#000000" cx="626.5977" cy="-18" rx="59.116" ry="18"/>
<text text-anchor="middle" x="626.5977" y="-13.8" font-family="Times,serif" font-size="14.00" fill="#000000">dharma2020</text>
</g>
<!-- freeze_date -->
<g id="node5" class="node">
<title>freeze_date</title>
<ellipse fill="none" stroke="#000000" cx="643.5977" cy="-378" rx="55.554" ry="18"/>
<text text-anchor="middle" x="643.5977" y="-373.8" font-family="Times,serif" font-size="14.00" fill="#000000">freeze_date</text>
</g>
<!-- freeze_date&#45;&gt;data_files -->
<g id="edge16" class="edge">
<title>freeze_date&#45;&gt;data_files</title>
<path fill="none" stroke="#000000" d="M664.7037,-361.3008C676.9651,-351.5994 692.5822,-339.2431 705.9428,-328.672"/>
<polygon fill="#000000" stroke="#000000" points="708.2494,-331.3101 713.92,-322.3604 703.906,-325.8205 708.2494,-331.3101"/>
</g>
<!-- freeze_date&#45;&gt;gdrive_files_have_NOT_changed -->
<g id="edge5" class="edge">
<title>freeze_date&#45;&gt;gdrive_files_have_NOT_changed</title>
<path fill="none" stroke="#000000" d="M640.8624,-359.6785C637.5821,-340.9543 631.0393,-311.3865 619.5977,-288 614.8645,-278.3253 608.277,-268.668 601.7654,-260.2515"/>
<polygon fill="#000000" stroke="#000000" points="604.3516,-257.8828 595.3507,-252.2941 598.9018,-262.2761 604.3516,-257.8828"/>
</g>
<!-- guard_pipeline_freeze -->
<g id="node7" class="node">
<title>guard_pipeline_freeze</title>
<ellipse fill="none" stroke="#000000" cx="600.5977" cy="-162" rx="97.2336" ry="18"/>
<text text-anchor="middle" x="600.5977" y="-157.8" font-family="Times,serif" font-size="14.00" fill="#000000">guard_pipeline_freeze</text>
</g>
<!-- gdrive_files_have_NOT_changed&#45;&gt;guard_pipeline_freeze -->
<g id="edge11" class="edge">
<title>gdrive_files_have_NOT_changed&#45;&gt;guard_pipeline_freeze</title>
<path fill="none" stroke="#000000" d="M584.1492,-215.8314C586.528,-208.0463 589.3615,-198.7729 592.001,-190.1347"/>
<polygon fill="#000000" stroke="#000000" points="595.3964,-190.9996 594.9714,-180.4133 588.702,-188.954 595.3964,-190.9996"/>
</g>
<!-- guard_pipeline_freeze&#45;&gt;raw_files -->
<g id="edge10" class="edge">
<title>guard_pipeline_freeze&#45;&gt;raw_files</title>
<path fill="none" stroke="#000000" d="M621.609,-144.2022C632.6335,-134.8638 646.276,-123.3078 658.1283,-113.2682"/>
<polygon fill="#000000" stroke="#000000" points="660.6253,-115.74 665.9936,-106.6058 656.1009,-110.3986 660.6253,-115.74"/>
</g>
<!-- opensrp -->
<g id="node8" class="node">
<title>opensrp</title>
<ellipse fill="none" stroke="#000000" cx="745.5977" cy="-18" rx="41.7153" ry="18"/>
<text text-anchor="middle" x="745.5977" y="-13.8" font-family="Times,serif" font-size="14.00" fill="#000000">opensrp</text>
</g>
<!-- opensrp_dict -->
<g id="node9" class="node">
<title>opensrp_dict</title>
<ellipse fill="none" stroke="#000000" cx="866.5977" cy="-18" rx="60.8371" ry="18"/>
<text text-anchor="middle" x="866.5977" y="-13.8" font-family="Times,serif" font-size="14.00" fill="#000000">opensrp_dict</text>
</g>
<!-- raw_files&#45;&gt;dharma2019 -->
<g id="edge18" class="edge">
<title>raw_files&#45;&gt;dharma2019</title>
<path fill="none" stroke="#000000" d="M651.4571,-77.4586C619.8775,-65.8579 572.6279,-48.5009 537.3199,-35.5306"/>
<polygon fill="#000000" stroke="#000000" points="538.2945,-32.16 527.7009,-31.9971 535.8807,-38.7307 538.2945,-32.16"/>
</g>
<!-- raw_files&#45;&gt;dharma2020 -->
<g id="edge20" class="edge">
<title>raw_files&#45;&gt;dharma2020</title>
<path fill="none" stroke="#000000" d="M671.3155,-72.5708C664.1217,-63.7919 655.2653,-52.9841 647.3372,-43.3093"/>
<polygon fill="#000000" stroke="#000000" points="649.9984,-41.0347 640.9529,-35.5182 644.584,-45.4714 649.9984,-41.0347"/>
</g>
<!-- raw_files&#45;&gt;opensrp -->
<g id="edge15" class="edge">
<title>raw_files&#45;&gt;opensrp</title>
<path fill="none" stroke="#000000" d="M700.122,-72.5708C707.492,-63.7269 716.5778,-52.8239 724.6857,-43.0945"/>
<polygon fill="#000000" stroke="#000000" points="727.494,-45.1916 731.2071,-35.2687 722.1165,-40.7103 727.494,-45.1916"/>
</g>
<!-- raw_files&#45;&gt;opensrp_dict -->
<g id="edge12" class="edge">
<title>raw_files&#45;&gt;opensrp_dict</title>
<path fill="none" stroke="#000000" d="M718.3754,-76.9613C746.9032,-65.6133 788.5643,-49.0409 820.4588,-36.3536"/>
<polygon fill="#000000" stroke="#000000" points="822.02,-39.4994 830.0182,-32.551 819.4327,-32.9951 822.02,-39.4994"/>
</g>
<!-- secure_access_true -->
<g id="node11" class="node">
<title>secure_access_true</title>
<ellipse fill="none" stroke="#000000" cx="268.5977" cy="-306" rx="85.0483" ry="18"/>
<text text-anchor="middle" x="268.5977" y="-301.8" font-family="Times,serif" font-size="14.00" fill="#000000">secure_access_true</text>
</g>
<!-- secure_access_true&#45;&gt;data_directory_ready -->
<g id="edge14" class="edge">
<title>secure_access_true&#45;&gt;data_directory_ready</title>
<path fill="none" stroke="#000000" d="M248.8224,-288.2022C238.9185,-279.2887 226.7697,-268.3548 215.9839,-258.6476"/>
<polygon fill="#000000" stroke="#000000" points="218.1971,-255.9307 208.4228,-251.8425 213.5143,-261.1338 218.1971,-255.9307"/>
</g>
<!-- authenticate_google_drive -->
<g id="node12" class="node">
<title>authenticate_google_drive</title>
<ellipse fill="none" stroke="#000000" cx="362.5977" cy="-378" rx="113.447" ry="18"/>
<text text-anchor="middle" x="362.5977" y="-373.8" font-family="Times,serif" font-size="14.00" fill="#000000">authenticate_google_drive</text>
</g>
<!-- authenticate_google_drive&#45;&gt;gdrive_files_have_NOT_changed -->
<g id="edge3" class="edge">
<title>authenticate_google_drive&#45;&gt;gdrive_files_have_NOT_changed</title>
<path fill="none" stroke="#000000" d="M454.5239,-367.3833C508.7392,-359.0185 569.9218,-345.1737 586.5977,-324 600.235,-306.6845 596.4924,-281.2644 590.34,-261.8525"/>
<polygon fill="#000000" stroke="#000000" points="593.6069,-260.5921 586.9823,-252.3237 587.0048,-262.9185 593.6069,-260.5921"/>
</g>
<!-- authenticate_google_drive&#45;&gt;raw_files -->
<g id="edge7" class="edge">
<title>authenticate_google_drive&#45;&gt;raw_files</title>
<path fill="none" stroke="#000000" d="M262.3611,-369.4459C162.9901,-359.9266 23.2049,-343.3163 6.5977,-324 -3.8332,-311.8676 .0883,-302.616 6.5977,-288 26.0589,-244.3026 43.951,-237.6669 86.5977,-216 269.7024,-122.9726 517.7338,-98.5937 628.3011,-92.2318"/>
<polygon fill="#000000" stroke="#000000" points="628.7712,-95.7114 638.5652,-91.6706 628.3891,-88.7218 628.7712,-95.7114"/>
</g>
<!-- authenticate_google_drive&#45;&gt;secure_access_true -->
<g id="edge19" class="edge">
<title>authenticate_google_drive&#45;&gt;secure_access_true</title>
<path fill="none" stroke="#000000" d="M339.3618,-360.2022C327.4094,-351.0473 312.6746,-339.761 299.7505,-329.8617"/>
<polygon fill="#000000" stroke="#000000" points="301.6335,-326.8953 291.5664,-323.593 297.3769,-332.4524 301.6335,-326.8953"/>
</g>
<!-- has_drive_file_changed -->
<g id="node18" class="node">
<title>has_drive_file_changed</title>
<ellipse fill="none" stroke="#000000" cx="474.5977" cy="-306" rx="103.0559" ry="18"/>
<text text-anchor="middle" x="474.5977" y="-301.8" font-family="Times,serif" font-size="14.00" fill="#000000">has_drive_file_changed</text>
</g>
<!-- authenticate_google_drive&#45;&gt;has_drive_file_changed -->
<g id="edge1" class="edge">
<title>authenticate_google_drive&#45;&gt;has_drive_file_changed</title>
<path fill="none" stroke="#000000" d="M389.996,-360.3868C404.7493,-350.9026 423.1229,-339.0909 438.9744,-328.9007"/>
<polygon fill="#000000" stroke="#000000" points="440.9632,-331.7831 447.4823,-323.4313 437.1778,-325.8948 440.9632,-331.7831"/>
</g>
<!-- my_median -->
<g id="node13" class="node">
<title>my_median</title>
<ellipse fill="none" stroke="#000000" cx="964.5977" cy="-378" rx="56.7639" ry="18"/>
<text text-anchor="middle" x="964.5977" y="-373.8" font-family="Times,serif" font-size="14.00" fill="#000000">my_median</text>
</g>
<!-- mahery_input_files -->
<g id="node14" class="node">
<title>mahery_input_files</title>
<ellipse fill="none" stroke="#000000" cx="803.5977" cy="-378" rx="86.2561" ry="18"/>
<text text-anchor="middle" x="803.5977" y="-373.8" font-family="Times,serif" font-size="14.00" fill="#000000">mahery_input_files</text>
</g>
<!-- mahery_input_files&#45;&gt;data_files -->
<g id="edge17" class="edge">
<title>mahery_input_files&#45;&gt;data_files</title>
<path fill="none" stroke="#000000" d="M786.5415,-360.2022C777.9763,-351.2646 767.4644,-340.2957 758.143,-330.569"/>
<polygon fill="#000000" stroke="#000000" points="760.4286,-327.8955 750.9826,-323.0972 755.3747,-332.7388 760.4286,-327.8955"/>
</g>
<!-- sub_median -->
<g id="node15" class="node">
<title>sub_median</title>
<ellipse fill="none" stroke="#000000" cx="1096.5977" cy="-378" rx="57.9081" ry="18"/>
<text text-anchor="middle" x="1096.5977" y="-373.8" font-family="Times,serif" font-size="14.00" fill="#000000">sub_median</text>
</g>
<!-- my_other_median -->
<g id="node19" class="node">
<title>my_other_median</title>
<ellipse fill="none" stroke="#000000" cx="1096.5977" cy="-306" rx="81.1052" ry="18"/>
<text text-anchor="middle" x="1096.5977" y="-301.8" font-family="Times,serif" font-size="14.00" fill="#000000">my_other_median</text>
</g>
<!-- sub_median&#45;&gt;my_other_median -->
<g id="edge2" class="edge">
<title>sub_median&#45;&gt;my_other_median</title>
<path fill="none" stroke="#000000" d="M1096.5977,-359.8314C1096.5977,-352.131 1096.5977,-342.9743 1096.5977,-334.4166"/>
<polygon fill="#000000" stroke="#000000" points="1100.0978,-334.4132 1096.5977,-324.4133 1093.0978,-334.4133 1100.0978,-334.4132"/>
</g>
<!-- download_to_local -->
<g id="node16" class="node">
<title>download_to_local</title>
<ellipse fill="none" stroke="#000000" cx="861.5977" cy="-162" rx="85.1179" ry="18"/>
<text text-anchor="middle" x="861.5977" y="-157.8" font-family="Times,serif" font-size="14.00" fill="#000000">download_to_local</text>
</g>
<!-- download_to_local&#45;&gt;raw_files -->
<g id="edge9" class="edge">
<title>download_to_local&#45;&gt;raw_files</title>
<path fill="none" stroke="#000000" d="M822.0999,-145.8418C793.8726,-134.2943 755.9629,-118.7858 727.2576,-107.0427"/>
<polygon fill="#000000" stroke="#000000" points="728.4836,-103.7627 717.9028,-103.2157 725.8331,-110.2415 728.4836,-103.7627"/>
</g>
<!-- create_datapaths -->
<g id="node17" class="node">
<title>create_datapaths</title>
<ellipse fill="none" stroke="#000000" cx="90.5977" cy="-306" rx="75.2578" ry="18"/>
<text text-anchor="middle" x="90.5977" y="-301.8" font-family="Times,serif" font-size="14.00" fill="#000000">create_datapaths</text>
</g>
<!-- create_datapaths&#45;&gt;data_directory_ready -->
<g id="edge13" class="edge">
<title>create_datapaths&#45;&gt;data_directory_ready</title>
<path fill="none" stroke="#000000" d="M114.3208,-288.5708C126.9867,-279.2652 142.7556,-267.6799 156.5018,-257.5807"/>
<polygon fill="#000000" stroke="#000000" points="158.7669,-260.2596 164.7534,-251.5182 154.6223,-254.6184 158.7669,-260.2596"/>
</g>
<!-- has_drive_file_changed&#45;&gt;gdrive_files_have_NOT_changed -->
<g id="edge6" class="edge">
<title>has_drive_file_changed&#45;&gt;gdrive_files_have_NOT_changed</title>
<path fill="none" stroke="#000000" d="M500.039,-288.3868C513.4105,-279.1296 529.9848,-267.6551 544.458,-257.6352"/>
<polygon fill="#000000" stroke="#000000" points="546.467,-260.5013 552.6967,-251.9315 542.4825,-254.746 546.467,-260.5013"/>
</g>
</g>
</svg>

