<?xml version="1.0" encoding="UTF-8" standalone="no"?>
<!DOCTYPE svg PUBLIC "-//W3C//DTD SVG 1.1//EN"
 "http://www.w3.org/Graphics/SVG/1.1/DTD/svg11.dtd">
<!-- Generated by graphviz version 2.40.1 (20161225.0304)
 -->
<!-- Title: targets_pipeline Pages: 1 -->
<svg width="850pt" height="188pt"
 viewBox="0.00 0.00 850.33 188.00" xmlns="http://www.w3.org/2000/svg" xmlns:xlink="http://www.w3.org/1999/xlink">
<g id="graph0" class="graph" transform="scale(1 1) rotate(0) translate(4 184)">
<title>targets_pipeline</title>
<polygon fill="#ffffff" stroke="transparent" points="-4,4 -4,-184 846.3265,-184 846.3265,4 -4,4"/>
<!-- data_directory_ready -->
<g id="node1" class="node">
<title>data_directory_ready</title>
<ellipse fill="none" stroke="#000000" cx="286.0242" cy="-18" rx="93.16" ry="18"/>
<text text-anchor="middle" x="286.0242" y="-13.8" font-family="Times,serif" font-size="14.00" fill="#000000">data_directory_ready</text>
</g>
<!-- secure_access_true -->
<g id="node2" class="node">
<title>secure_access_true</title>
<ellipse fill="none" stroke="#000000" cx="85.0242" cy="-90" rx="85.0483" ry="18"/>
<text text-anchor="middle" x="85.0242" y="-85.8" font-family="Times,serif" font-size="14.00" fill="#000000">secure_access_true</text>
</g>
<!-- secure_access_true&#45;&gt;data_directory_ready -->
<g id="edge4" class="edge">
<title>secure_access_true&#45;&gt;data_directory_ready</title>
<path fill="none" stroke="#000000" d="M128.6382,-74.3771C158.9826,-63.5074 199.6436,-48.9423 232.0348,-37.3395"/>
<polygon fill="#000000" stroke="#000000" points="233.5672,-40.5084 241.8012,-33.8411 231.2066,-33.9184 233.5672,-40.5084"/>
</g>
<!-- authenticate_google_drive -->
<g id="node3" class="node">
<title>authenticate_google_drive</title>
<ellipse fill="none" stroke="#000000" cx="192.0242" cy="-162" rx="113.447" ry="18"/>
<text text-anchor="middle" x="192.0242" y="-157.8" font-family="Times,serif" font-size="14.00" fill="#000000">authenticate_google_drive</text>
</g>
<!-- authenticate_google_drive&#45;&gt;secure_access_true -->
<g id="edge5" class="edge">
<title>authenticate_google_drive&#45;&gt;secure_access_true</title>
<path fill="none" stroke="#000000" d="M165.849,-144.3868C151.7814,-134.9208 134.2684,-123.1363 119.1444,-112.9594"/>
<polygon fill="#000000" stroke="#000000" points="120.8104,-109.8619 110.5598,-107.1829 116.9024,-115.6695 120.8104,-109.8619"/>
</g>
<!-- has_drive_file_changed -->
<g id="node8" class="node">
<title>has_drive_file_changed</title>
<ellipse fill="none" stroke="#000000" cx="291.0242" cy="-90" rx="103.0559" ry="18"/>
<text text-anchor="middle" x="291.0242" y="-85.8" font-family="Times,serif" font-size="14.00" fill="#000000">has_drive_file_changed</text>
</g>
<!-- authenticate_google_drive&#45;&gt;has_drive_file_changed -->
<g id="edge1" class="edge">
<title>authenticate_google_drive&#45;&gt;has_drive_file_changed</title>
<path fill="none" stroke="#000000" d="M216.2423,-144.3868C228.9468,-135.1472 244.6886,-123.6986 258.4473,-113.6922"/>
<polygon fill="#000000" stroke="#000000" points="260.6842,-116.3932 266.7129,-107.6809 256.5669,-110.7321 260.6842,-116.3932"/>
</g>
<!-- my_median -->
<g id="node4" class="node">
<title>my_median</title>
<ellipse fill="none" stroke="#000000" cx="413.0242" cy="-162" rx="56.7639" ry="18"/>
<text text-anchor="middle" x="413.0242" y="-157.8" font-family="Times,serif" font-size="14.00" fill="#000000">my_median</text>
</g>
<!-- mahery_input_files -->
<g id="node5" class="node">
<title>mahery_input_files</title>
<ellipse fill="none" stroke="#000000" cx="591.0242" cy="-162" rx="86.2561" ry="18"/>
<text text-anchor="middle" x="591.0242" y="-157.8" font-family="Times,serif" font-size="14.00" fill="#000000">mahery_input_files</text>
</g>
<!-- sub_median -->
<g id="node6" class="node">
<title>sub_median</title>
<ellipse fill="none" stroke="#000000" cx="761.0242" cy="-162" rx="57.9081" ry="18"/>
<text text-anchor="middle" x="761.0242" y="-157.8" font-family="Times,serif" font-size="14.00" fill="#000000">sub_median</text>
</g>
<!-- my_other_median -->
<g id="node9" class="node">
<title>my_other_median</title>
<ellipse fill="none" stroke="#000000" cx="761.0242" cy="-90" rx="81.1052" ry="18"/>
<text text-anchor="middle" x="761.0242" y="-85.8" font-family="Times,serif" font-size="14.00" fill="#000000">my_other_median</text>
</g>
<!-- sub_median&#45;&gt;my_other_median -->
<g id="edge2" class="edge">
<title>sub_median&#45;&gt;my_other_median</title>
<path fill="none" stroke="#000000" d="M761.0242,-143.8314C761.0242,-136.131 761.0242,-126.9743 761.0242,-118.4166"/>
<polygon fill="#000000" stroke="#000000" points="764.5243,-118.4132 761.0242,-108.4133 757.5243,-118.4133 764.5243,-118.4132"/>
</g>
<!-- create_datapaths -->
<g id="node7" class="node">
<title>create_datapaths</title>
<ellipse fill="none" stroke="#000000" cx="488.0242" cy="-90" rx="75.2578" ry="18"/>
<text text-anchor="middle" x="488.0242" y="-85.8" font-family="Times,serif" font-size="14.00" fill="#000000">create_datapaths</text>
</g>
<!-- create_datapaths&#45;&gt;data_directory_ready -->
<g id="edge3" class="edge">
<title>create_datapaths&#45;&gt;data_directory_ready</title>
<path fill="none" stroke="#000000" d="M445.6783,-74.9064C414.9321,-63.9474 373.0882,-49.0327 339.9518,-37.2217"/>
<polygon fill="#000000" stroke="#000000" points="341.0071,-33.8823 330.4125,-33.8216 338.6569,-40.4759 341.0071,-33.8823"/>
</g>
</g>
</svg>

