<?xml version="1.0" encoding="UTF-8" standalone="no"?>
<!DOCTYPE svg PUBLIC "-//W3C//DTD SVG 1.1//EN"
 "http://www.w3.org/Graphics/SVG/1.1/DTD/svg11.dtd">
<!-- Generated by graphviz version 2.40.1 (20161225.0304)
 -->
<!-- Title: targets_pipeline Pages: 1 -->
<svg width="1209pt" height="260pt"
 viewBox="0.00 0.00 1208.68 260.00" xmlns="http://www.w3.org/2000/svg" xmlns:xlink="http://www.w3.org/1999/xlink">
<g id="graph0" class="graph" transform="scale(1 1) rotate(0) translate(4 256)">
<title>targets_pipeline</title>
<polygon fill="#ffffff" stroke="transparent" points="-4,4 -4,-256 1204.6812,-256 1204.6812,4 -4,4"/>
<!-- data_directory_ready -->
<g id="node1" class="node">
<title>data_directory_ready</title>
<ellipse fill="none" stroke="#000000" cx="160.3788" cy="-90" rx="93.16" ry="18"/>
<text text-anchor="middle" x="160.3788" y="-85.8" font-family="Times,serif" font-size="14.00" fill="#000000">data_directory_ready</text>
</g>
<!-- data_files -->
<g id="node2" class="node">
<title>data_files</title>
<ellipse fill="none" stroke="#000000" cx="743.3788" cy="-162" rx="48.6501" ry="18"/>
<text text-anchor="middle" x="743.3788" y="-157.8" font-family="Times,serif" font-size="14.00" fill="#000000">data_files</text>
</g>
<!-- gdrive_files_have_NOT_changed -->
<g id="node6" class="node">
<title>gdrive_files_have_NOT_changed</title>
<ellipse fill="none" stroke="#000000" cx="497.3788" cy="-90" rx="141.784" ry="18"/>
<text text-anchor="middle" x="497.3788" y="-85.8" font-family="Times,serif" font-size="14.00" fill="#000000">gdrive_files_have_NOT_changed</text>
</g>
<!-- data_files&#45;&gt;gdrive_files_have_NOT_changed -->
<g id="edge4" class="edge">
<title>data_files&#45;&gt;gdrive_files_have_NOT_changed</title>
<path fill="none" stroke="#000000" d="M705.2112,-150.829C667.4924,-139.7894 609.0221,-122.6761 563.6958,-109.4099"/>
<polygon fill="#000000" stroke="#000000" points="564.5245,-106.0056 553.944,-106.5557 562.5582,-112.7238 564.5245,-106.0056"/>
</g>
<!-- raw_files -->
<g id="node10" class="node">
<title>raw_files</title>
<ellipse fill="none" stroke="#000000" cx="777.3788" cy="-90" rx="46.9246" ry="18"/>
<text text-anchor="middle" x="777.3788" y="-85.8" font-family="Times,serif" font-size="14.00" fill="#000000">raw_files</text>
</g>
<!-- data_files&#45;&gt;raw_files -->
<g id="edge8" class="edge">
<title>data_files&#45;&gt;raw_files</title>
<path fill="none" stroke="#000000" d="M751.7833,-144.2022C755.6656,-135.981 760.3594,-126.041 764.6618,-116.9301"/>
<polygon fill="#000000" stroke="#000000" points="767.8479,-118.3796 768.9532,-107.8425 761.5182,-115.3905 767.8479,-118.3796"/>
</g>
<!-- dharma2019 -->
<g id="node3" class="node">
<title>dharma2019</title>
<ellipse fill="none" stroke="#000000" cx="777.3788" cy="-18" rx="59.116" ry="18"/>
<text text-anchor="middle" x="777.3788" y="-13.8" font-family="Times,serif" font-size="14.00" fill="#000000">dharma2019</text>
</g>
<!-- dharma2020 -->
<g id="node4" class="node">
<title>dharma2020</title>
<ellipse fill="none" stroke="#000000" cx="914.3788" cy="-18" rx="59.116" ry="18"/>
<text text-anchor="middle" x="914.3788" y="-13.8" font-family="Times,serif" font-size="14.00" fill="#000000">dharma2020</text>
</g>
<!-- freeze_date -->
<g id="node5" class="node">
<title>freeze_date</title>
<ellipse fill="none" stroke="#000000" cx="666.3788" cy="-234" rx="55.554" ry="18"/>
<text text-anchor="middle" x="666.3788" y="-229.8" font-family="Times,serif" font-size="14.00" fill="#000000">freeze_date</text>
</g>
<!-- freeze_date&#45;&gt;data_files -->
<g id="edge15" class="edge">
<title>freeze_date&#45;&gt;data_files</title>
<path fill="none" stroke="#000000" d="M684.6267,-216.937C694.5038,-207.7013 706.8669,-196.141 717.7008,-186.0106"/>
<polygon fill="#000000" stroke="#000000" points="720.3481,-188.327 725.2619,-178.9405 715.5671,-183.214 720.3481,-188.327"/>
</g>
<!-- freeze_date&#45;&gt;gdrive_files_have_NOT_changed -->
<g id="edge5" class="edge">
<title>freeze_date&#45;&gt;gdrive_files_have_NOT_changed</title>
<path fill="none" stroke="#000000" d="M658.6974,-216.0228C649.4644,-196.2019 632.3032,-164.4224 609.3788,-144 594.0045,-130.3037 574.5383,-119.317 556.1638,-110.9222"/>
<polygon fill="#000000" stroke="#000000" points="557.5328,-107.7009 546.9692,-106.8888 554.7207,-114.1112 557.5328,-107.7009"/>
</g>
<!-- guard_pipeline_freeze -->
<g id="node7" class="node">
<title>guard_pipeline_freeze</title>
<ellipse fill="none" stroke="#000000" cx="463.3788" cy="-18" rx="97.2336" ry="18"/>
<text text-anchor="middle" x="463.3788" y="-13.8" font-family="Times,serif" font-size="14.00" fill="#000000">guard_pipeline_freeze</text>
</g>
<!-- gdrive_files_have_NOT_changed&#45;&gt;guard_pipeline_freeze -->
<g id="edge10" class="edge">
<title>gdrive_files_have_NOT_changed&#45;&gt;guard_pipeline_freeze</title>
<path fill="none" stroke="#000000" d="M488.7992,-71.8314C485.043,-63.8771 480.5531,-54.369 476.399,-45.5723"/>
<polygon fill="#000000" stroke="#000000" points="479.5089,-43.9612 472.074,-36.4133 473.1792,-46.9503 479.5089,-43.9612"/>
</g>
<!-- opensrp -->
<g id="node8" class="node">
<title>opensrp</title>
<ellipse fill="none" stroke="#000000" cx="1033.3788" cy="-18" rx="41.7153" ry="18"/>
<text text-anchor="middle" x="1033.3788" y="-13.8" font-family="Times,serif" font-size="14.00" fill="#000000">opensrp</text>
</g>
<!-- opensrp_dict -->
<g id="node9" class="node">
<title>opensrp_dict</title>
<ellipse fill="none" stroke="#000000" cx="639.3788" cy="-18" rx="60.8371" ry="18"/>
<text text-anchor="middle" x="639.3788" y="-13.8" font-family="Times,serif" font-size="14.00" fill="#000000">opensrp_dict</text>
</g>
<!-- raw_files&#45;&gt;dharma2019 -->
<g id="edge17" class="edge">
<title>raw_files&#45;&gt;dharma2019</title>
<path fill="none" stroke="#000000" d="M777.3788,-71.8314C777.3788,-64.131 777.3788,-54.9743 777.3788,-46.4166"/>
<polygon fill="#000000" stroke="#000000" points="780.8789,-46.4132 777.3788,-36.4133 773.8789,-46.4133 780.8789,-46.4132"/>
</g>
<!-- raw_files&#45;&gt;dharma2020 -->
<g id="edge19" class="edge">
<title>raw_files&#45;&gt;dharma2020</title>
<path fill="none" stroke="#000000" d="M805.1028,-75.4297C825.3062,-64.8119 852.9502,-50.2836 875.3786,-38.4965"/>
<polygon fill="#000000" stroke="#000000" points="877.0951,-41.5483 884.3189,-33.7979 873.8386,-35.3519 877.0951,-41.5483"/>
</g>
<!-- raw_files&#45;&gt;opensrp -->
<g id="edge14" class="edge">
<title>raw_files&#45;&gt;opensrp</title>
<path fill="none" stroke="#000000" d="M817.334,-80.5017C858.8491,-70.3934 925.567,-53.4761 982.3788,-36 985.475,-35.0476 988.6629,-34.0249 991.8616,-32.9683"/>
<polygon fill="#000000" stroke="#000000" points="993.0615,-36.2573 1001.409,-29.7327 990.8147,-29.6276 993.0615,-36.2573"/>
</g>
<!-- raw_files&#45;&gt;opensrp_dict -->
<g id="edge11" class="edge">
<title>raw_files&#45;&gt;opensrp_dict</title>
<path fill="none" stroke="#000000" d="M749.4524,-75.4297C729.1015,-64.8119 701.2557,-50.2836 678.6637,-38.4965"/>
<polygon fill="#000000" stroke="#000000" points="680.143,-35.3206 669.6582,-33.7979 676.905,-41.5267 680.143,-35.3206"/>
</g>
<!-- secure_access_true -->
<g id="node11" class="node">
<title>secure_access_true</title>
<ellipse fill="none" stroke="#000000" cx="253.3788" cy="-162" rx="85.0483" ry="18"/>
<text text-anchor="middle" x="253.3788" y="-157.8" font-family="Times,serif" font-size="14.00" fill="#000000">secure_access_true</text>
</g>
<!-- secure_access_true&#45;&gt;data_directory_ready -->
<g id="edge13" class="edge">
<title>secure_access_true&#45;&gt;data_directory_ready</title>
<path fill="none" stroke="#000000" d="M230.8661,-144.5708C218.9597,-135.353 204.1641,-123.8983 191.2069,-113.8669"/>
<polygon fill="#000000" stroke="#000000" points="193.0564,-110.8725 183.0065,-107.5182 188.7712,-116.4075 193.0564,-110.8725"/>
</g>
<!-- authenticate_google_drive -->
<g id="node12" class="node">
<title>authenticate_google_drive</title>
<ellipse fill="none" stroke="#000000" cx="423.3788" cy="-234" rx="113.447" ry="18"/>
<text text-anchor="middle" x="423.3788" y="-229.8" font-family="Times,serif" font-size="14.00" fill="#000000">authenticate_google_drive</text>
</g>
<!-- authenticate_google_drive&#45;&gt;gdrive_files_have_NOT_changed -->
<g id="edge3" class="edge">
<title>authenticate_google_drive&#45;&gt;gdrive_files_have_NOT_changed</title>
<path fill="none" stroke="#000000" d="M405.8604,-215.9195C389.8646,-197.1282 370.7659,-167.2682 385.3788,-144 394.6399,-129.2535 409.1854,-118.4387 424.7654,-110.5419"/>
<polygon fill="#000000" stroke="#000000" points="426.4432,-113.6214 434.026,-106.222 423.4839,-107.2776 426.4432,-113.6214"/>
</g>
<!-- authenticate_google_drive&#45;&gt;raw_files -->
<g id="edge7" class="edge">
<title>authenticate_google_drive&#45;&gt;raw_files</title>
<path fill="none" stroke="#000000" d="M486.9169,-219.0775C523.3879,-209.6456 569.6804,-196.1876 609.3788,-180 657.8291,-160.2437 710.5255,-130.5541 743.7356,-110.7411"/>
<polygon fill="#000000" stroke="#000000" points="745.7998,-113.584 752.5661,-105.4312 742.1925,-107.585 745.7998,-113.584"/>
</g>
<!-- authenticate_google_drive&#45;&gt;secure_access_true -->
<g id="edge18" class="edge">
<title>authenticate_google_drive&#45;&gt;secure_access_true</title>
<path fill="none" stroke="#000000" d="M383.5214,-217.1192C358.7859,-206.643 326.8653,-193.1237 300.8282,-182.0962"/>
<polygon fill="#000000" stroke="#000000" points="302.0992,-178.8336 291.526,-178.1565 299.3692,-185.2793 302.0992,-178.8336"/>
</g>
<!-- has_drive_file_changed -->
<g id="node18" class="node">
<title>has_drive_file_changed</title>
<ellipse fill="none" stroke="#000000" cx="497.3788" cy="-162" rx="103.0559" ry="18"/>
<text text-anchor="middle" x="497.3788" y="-157.8" font-family="Times,serif" font-size="14.00" fill="#000000">has_drive_file_changed</text>
</g>
<!-- authenticate_google_drive&#45;&gt;has_drive_file_changed -->
<g id="edge1" class="edge">
<title>authenticate_google_drive&#45;&gt;has_drive_file_changed</title>
<path fill="none" stroke="#000000" d="M441.6709,-216.2022C450.7432,-207.3752 461.8517,-196.5669 471.7556,-186.9307"/>
<polygon fill="#000000" stroke="#000000" points="474.3141,-189.3247 479.0406,-179.8425 469.4326,-184.3076 474.3141,-189.3247"/>
</g>
<!-- my_median -->
<g id="node13" class="node">
<title>my_median</title>
<ellipse fill="none" stroke="#000000" cx="987.3788" cy="-234" rx="56.7639" ry="18"/>
<text text-anchor="middle" x="987.3788" y="-229.8" font-family="Times,serif" font-size="14.00" fill="#000000">my_median</text>
</g>
<!-- mahery_input_files -->
<g id="node14" class="node">
<title>mahery_input_files</title>
<ellipse fill="none" stroke="#000000" cx="826.3788" cy="-234" rx="86.2561" ry="18"/>
<text text-anchor="middle" x="826.3788" y="-229.8" font-family="Times,serif" font-size="14.00" fill="#000000">mahery_input_files</text>
</g>
<!-- mahery_input_files&#45;&gt;data_files -->
<g id="edge16" class="edge">
<title>mahery_input_files&#45;&gt;data_files</title>
<path fill="none" stroke="#000000" d="M805.8619,-216.2022C795.0968,-206.8638 781.7753,-195.3078 770.2018,-185.2682"/>
<polygon fill="#000000" stroke="#000000" points="772.369,-182.5148 762.5216,-178.6058 767.7821,-187.8025 772.369,-182.5148"/>
</g>
<!-- sub_median -->
<g id="node15" class="node">
<title>sub_median</title>
<ellipse fill="none" stroke="#000000" cx="1119.3788" cy="-234" rx="57.9081" ry="18"/>
<text text-anchor="middle" x="1119.3788" y="-229.8" font-family="Times,serif" font-size="14.00" fill="#000000">sub_median</text>
</g>
<!-- my_other_median -->
<g id="node19" class="node">
<title>my_other_median</title>
<ellipse fill="none" stroke="#000000" cx="1119.3788" cy="-162" rx="81.1052" ry="18"/>
<text text-anchor="middle" x="1119.3788" y="-157.8" font-family="Times,serif" font-size="14.00" fill="#000000">my_other_median</text>
</g>
<!-- sub_median&#45;&gt;my_other_median -->
<g id="edge2" class="edge">
<title>sub_median&#45;&gt;my_other_median</title>
<path fill="none" stroke="#000000" d="M1119.3788,-215.8314C1119.3788,-208.131 1119.3788,-198.9743 1119.3788,-190.4166"/>
<polygon fill="#000000" stroke="#000000" points="1122.8789,-190.4132 1119.3788,-180.4133 1115.8789,-190.4133 1122.8789,-190.4132"/>
</g>
<!-- download_to_local -->
<g id="node16" class="node">
<title>download_to_local</title>
<ellipse fill="none" stroke="#000000" cx="895.3788" cy="-162" rx="85.1179" ry="18"/>
<text text-anchor="middle" x="895.3788" y="-157.8" font-family="Times,serif" font-size="14.00" fill="#000000">download_to_local</text>
</g>
<!-- download_to_local&#45;&gt;raw_files -->
<g id="edge9" class="edge">
<title>download_to_local&#45;&gt;raw_files</title>
<path fill="none" stroke="#000000" d="M867.4144,-144.937C850.7,-134.7384 829.3399,-121.7051 811.6198,-110.8928"/>
<polygon fill="#000000" stroke="#000000" points="813.0884,-107.6889 802.729,-105.4679 809.4423,-113.6643 813.0884,-107.6889"/>
</g>
<!-- create_datapaths -->
<g id="node17" class="node">
<title>create_datapaths</title>
<ellipse fill="none" stroke="#000000" cx="75.3788" cy="-162" rx="75.2578" ry="18"/>
<text text-anchor="middle" x="75.3788" y="-157.8" font-family="Times,serif" font-size="14.00" fill="#000000">create_datapaths</text>
</g>
<!-- create_datapaths&#45;&gt;data_directory_ready -->
<g id="edge12" class="edge">
<title>create_datapaths&#45;&gt;data_directory_ready</title>
<path fill="none" stroke="#000000" d="M95.9549,-144.5708C106.6536,-135.5084 119.9047,-124.2839 131.6021,-114.3755"/>
<polygon fill="#000000" stroke="#000000" points="134.0334,-116.903 139.4016,-107.7689 129.509,-111.5617 134.0334,-116.903"/>
</g>
<!-- has_drive_file_changed&#45;&gt;gdrive_files_have_NOT_changed -->
<g id="edge6" class="edge">
<title>has_drive_file_changed&#45;&gt;gdrive_files_have_NOT_changed</title>
<path fill="none" stroke="#000000" d="M497.3788,-143.8314C497.3788,-136.131 497.3788,-126.9743 497.3788,-118.4166"/>
<polygon fill="#000000" stroke="#000000" points="500.8789,-118.4132 497.3788,-108.4133 493.8789,-118.4133 500.8789,-118.4132"/>
</g>
</g>
</svg>

