<?xml version="1.0" encoding="UTF-8" standalone="no"?>
<!DOCTYPE svg PUBLIC "-//W3C//DTD SVG 1.1//EN"
 "http://www.w3.org/Graphics/SVG/1.1/DTD/svg11.dtd">
<!-- Generated by graphviz version 2.40.1 (20161225.0304)
 -->
<!-- Title: targets_pipeline Pages: 1 -->
<svg width="1072pt" height="260pt"
 viewBox="0.00 0.00 1072.43 260.00" xmlns="http://www.w3.org/2000/svg" xmlns:xlink="http://www.w3.org/1999/xlink">
<g id="graph0" class="graph" transform="scale(1 1) rotate(0) translate(4 256)">
<title>targets_pipeline</title>
<polygon fill="#ffffff" stroke="transparent" points="-4,4 -4,-256 1068.4303,-256 1068.4303,4 -4,4"/>
<!-- data_directory_ready -->
<g id="node1" class="node">
<title>data_directory_ready</title>
<ellipse fill="none" stroke="#000000" cx="719.1279" cy="-90" rx="93.16" ry="18"/>
<text text-anchor="middle" x="719.1279" y="-85.8" font-family="Times,serif" font-size="14.00" fill="#000000">data_directory_ready</text>
</g>
<!-- data_files -->
<g id="node2" class="node">
<title>data_files</title>
<ellipse fill="none" stroke="#000000" cx="178.1279" cy="-162" rx="48.6501" ry="18"/>
<text text-anchor="middle" x="178.1279" y="-157.8" font-family="Times,serif" font-size="14.00" fill="#000000">data_files</text>
</g>
<!-- gdrive_files_have_NOT_changed -->
<g id="node4" class="node">
<title>gdrive_files_have_NOT_changed</title>
<ellipse fill="none" stroke="#000000" cx="274.1279" cy="-90" rx="141.784" ry="18"/>
<text text-anchor="middle" x="274.1279" y="-85.8" font-family="Times,serif" font-size="14.00" fill="#000000">gdrive_files_have_NOT_changed</text>
</g>
<!-- data_files&#45;&gt;gdrive_files_have_NOT_changed -->
<g id="edge4" class="edge">
<title>data_files&#45;&gt;gdrive_files_have_NOT_changed</title>
<path fill="none" stroke="#000000" d="M199.9118,-145.6621C212.3727,-136.3164 228.2339,-124.4205 242.0917,-114.0271"/>
<polygon fill="#000000" stroke="#000000" points="244.513,-116.5862 250.413,-107.7862 240.313,-110.9862 244.513,-116.5862"/>
</g>
<!-- freeze_date -->
<g id="node3" class="node">
<title>freeze_date</title>
<ellipse fill="none" stroke="#000000" cx="246.1279" cy="-234" rx="55.554" ry="18"/>
<text text-anchor="middle" x="246.1279" y="-229.8" font-family="Times,serif" font-size="14.00" fill="#000000">freeze_date</text>
</g>
<!-- freeze_date&#45;&gt;data_files -->
<g id="edge10" class="edge">
<title>freeze_date&#45;&gt;data_files</title>
<path fill="none" stroke="#000000" d="M229.667,-216.5708C221.2309,-207.6385 210.811,-196.6056 201.5529,-186.8029"/>
<polygon fill="#000000" stroke="#000000" points="203.8481,-184.1357 194.4373,-179.2687 198.759,-188.942 203.8481,-184.1357"/>
</g>
<!-- freeze_date&#45;&gt;gdrive_files_have_NOT_changed -->
<g id="edge5" class="edge">
<title>freeze_date&#45;&gt;gdrive_files_have_NOT_changed</title>
<path fill="none" stroke="#000000" d="M249.6742,-215.7623C254.471,-191.0928 263.0719,-146.8598 268.6887,-117.9731"/>
<polygon fill="#000000" stroke="#000000" points="272.1374,-118.5738 270.6105,-108.0896 265.2661,-117.2377 272.1374,-118.5738"/>
</g>
<!-- guard_pipeline_freeze -->
<g id="node5" class="node">
<title>guard_pipeline_freeze</title>
<ellipse fill="none" stroke="#000000" cx="274.1279" cy="-18" rx="97.2336" ry="18"/>
<text text-anchor="middle" x="274.1279" y="-13.8" font-family="Times,serif" font-size="14.00" fill="#000000">guard_pipeline_freeze</text>
</g>
<!-- gdrive_files_have_NOT_changed&#45;&gt;guard_pipeline_freeze -->
<g id="edge7" class="edge">
<title>gdrive_files_have_NOT_changed&#45;&gt;guard_pipeline_freeze</title>
<path fill="none" stroke="#000000" d="M274.1279,-71.8314C274.1279,-64.131 274.1279,-54.9743 274.1279,-46.4166"/>
<polygon fill="#000000" stroke="#000000" points="277.628,-46.4132 274.1279,-36.4133 270.628,-46.4133 277.628,-46.4132"/>
</g>
<!-- secure_access_true -->
<g id="node6" class="node">
<title>secure_access_true</title>
<ellipse fill="none" stroke="#000000" cx="630.1279" cy="-162" rx="85.0483" ry="18"/>
<text text-anchor="middle" x="630.1279" y="-157.8" font-family="Times,serif" font-size="14.00" fill="#000000">secure_access_true</text>
</g>
<!-- secure_access_true&#45;&gt;data_directory_ready -->
<g id="edge9" class="edge">
<title>secure_access_true&#45;&gt;data_directory_ready</title>
<path fill="none" stroke="#000000" d="M651.6724,-144.5708C663.0666,-135.353 677.2259,-123.8983 689.6258,-113.8669"/>
<polygon fill="#000000" stroke="#000000" points="691.9003,-116.5288 697.4735,-107.5182 687.4976,-111.0867 691.9003,-116.5288"/>
</g>
<!-- authenticate_google_drive -->
<g id="node7" class="node">
<title>authenticate_google_drive</title>
<ellipse fill="none" stroke="#000000" cx="433.1279" cy="-234" rx="113.447" ry="18"/>
<text text-anchor="middle" x="433.1279" y="-229.8" font-family="Times,serif" font-size="14.00" fill="#000000">authenticate_google_drive</text>
</g>
<!-- authenticate_google_drive&#45;&gt;gdrive_files_have_NOT_changed -->
<g id="edge3" class="edge">
<title>authenticate_google_drive&#45;&gt;gdrive_files_have_NOT_changed</title>
<path fill="none" stroke="#000000" d="M375.6903,-218.3987C353.5448,-210.0131 329.4363,-197.6623 312.1279,-180 295.4241,-162.9546 285.6024,-137.4567 280.1438,-117.9479"/>
<polygon fill="#000000" stroke="#000000" points="283.4899,-116.9062 277.6089,-108.0935 276.7106,-118.6502 283.4899,-116.9062"/>
</g>
<!-- authenticate_google_drive&#45;&gt;secure_access_true -->
<g id="edge12" class="edge">
<title>authenticate_google_drive&#45;&gt;secure_access_true</title>
<path fill="none" stroke="#000000" d="M478.3237,-217.4817C507.947,-206.655 546.7749,-192.4641 577.7462,-181.1446"/>
<polygon fill="#000000" stroke="#000000" points="579.3133,-184.2984 587.5042,-177.5782 576.9103,-177.7237 579.3133,-184.2984"/>
</g>
<!-- has_drive_file_changed -->
<g id="node12" class="node">
<title>has_drive_file_changed</title>
<ellipse fill="none" stroke="#000000" cx="424.1279" cy="-162" rx="103.0559" ry="18"/>
<text text-anchor="middle" x="424.1279" y="-157.8" font-family="Times,serif" font-size="14.00" fill="#000000">has_drive_file_changed</text>
</g>
<!-- authenticate_google_drive&#45;&gt;has_drive_file_changed -->
<g id="edge1" class="edge">
<title>authenticate_google_drive&#45;&gt;has_drive_file_changed</title>
<path fill="none" stroke="#000000" d="M430.8569,-215.8314C429.8943,-208.131 428.7497,-198.9743 427.68,-190.4166"/>
<polygon fill="#000000" stroke="#000000" points="431.143,-189.9019 426.4296,-180.4133 424.1971,-190.7702 431.143,-189.9019"/>
</g>
<!-- my_median -->
<g id="node8" class="node">
<title>my_median</title>
<ellipse fill="none" stroke="#000000" cx="741.1279" cy="-234" rx="56.7639" ry="18"/>
<text text-anchor="middle" x="741.1279" y="-229.8" font-family="Times,serif" font-size="14.00" fill="#000000">my_median</text>
</g>
<!-- mahery_input_files -->
<g id="node9" class="node">
<title>mahery_input_files</title>
<ellipse fill="none" stroke="#000000" cx="86.1279" cy="-234" rx="86.2561" ry="18"/>
<text text-anchor="middle" x="86.1279" y="-229.8" font-family="Times,serif" font-size="14.00" fill="#000000">mahery_input_files</text>
</g>
<!-- mahery_input_files&#45;&gt;data_files -->
<g id="edge11" class="edge">
<title>mahery_input_files&#45;&gt;data_files</title>
<path fill="none" stroke="#000000" d="M108.3986,-216.5708C120.7295,-206.9206 136.1931,-194.8186 149.4228,-184.4649"/>
<polygon fill="#000000" stroke="#000000" points="151.6056,-187.2011 157.3236,-178.2817 147.2914,-181.6885 151.6056,-187.2011"/>
</g>
<!-- sub_median -->
<g id="node10" class="node">
<title>sub_median</title>
<ellipse fill="none" stroke="#000000" cx="983.1279" cy="-234" rx="57.9081" ry="18"/>
<text text-anchor="middle" x="983.1279" y="-229.8" font-family="Times,serif" font-size="14.00" fill="#000000">sub_median</text>
</g>
<!-- my_other_median -->
<g id="node13" class="node">
<title>my_other_median</title>
<ellipse fill="none" stroke="#000000" cx="983.1279" cy="-162" rx="81.1052" ry="18"/>
<text text-anchor="middle" x="983.1279" y="-157.8" font-family="Times,serif" font-size="14.00" fill="#000000">my_other_median</text>
</g>
<!-- sub_median&#45;&gt;my_other_median -->
<g id="edge2" class="edge">
<title>sub_median&#45;&gt;my_other_median</title>
<path fill="none" stroke="#000000" d="M983.1279,-215.8314C983.1279,-208.131 983.1279,-198.9743 983.1279,-190.4166"/>
<polygon fill="#000000" stroke="#000000" points="986.628,-190.4132 983.1279,-180.4133 979.628,-190.4133 986.628,-190.4132"/>
</g>
<!-- create_datapaths -->
<g id="node11" class="node">
<title>create_datapaths</title>
<ellipse fill="none" stroke="#000000" cx="808.1279" cy="-162" rx="75.2578" ry="18"/>
<text text-anchor="middle" x="808.1279" y="-157.8" font-family="Times,serif" font-size="14.00" fill="#000000">create_datapaths</text>
</g>
<!-- create_datapaths&#45;&gt;data_directory_ready -->
<g id="edge8" class="edge">
<title>create_datapaths&#45;&gt;data_directory_ready</title>
<path fill="none" stroke="#000000" d="M786.5835,-144.5708C775.1893,-135.353 761.03,-123.8983 748.6301,-113.8669"/>
<polygon fill="#000000" stroke="#000000" points="750.7583,-111.0867 740.7824,-107.5182 746.3556,-116.5288 750.7583,-111.0867"/>
</g>
<!-- has_drive_file_changed&#45;&gt;gdrive_files_have_NOT_changed -->
<g id="edge6" class="edge">
<title>has_drive_file_changed&#45;&gt;gdrive_files_have_NOT_changed</title>
<path fill="none" stroke="#000000" d="M388.58,-144.937C367.9609,-135.0398 341.7804,-122.4732 319.6642,-111.8574"/>
<polygon fill="#000000" stroke="#000000" points="320.9925,-108.6127 310.4627,-107.4407 317.9633,-114.9234 320.9925,-108.6127"/>
</g>
</g>
</svg>

